<?xml version="1.0" encoding="UTF-8" standalone="no"?><svg xmlns="http://www.w3.org/2000/svg" xmlns:xlink="http://www.w3.org/1999/xlink" contentScriptType="application/ecmascript" contentStyleType="text/css" height="716px" preserveAspectRatio="none" style="width:602px;height:716px;" version="1.1" viewBox="0 0 602 716" width="602px" zoomAndPan="magnify"><defs><filter height="300%" id="f1bxo56fvzfr48" width="300%" x="-1" y="-1"><feGaussianBlur result="blurOut" stdDeviation="2.0"/><feColorMatrix in="blurOut" result="blurOut2" type="matrix" values="0 0 0 0 0 0 0 0 0 0 0 0 0 0 0 0 0 0 .4 0"/><feOffset dx="4.0" dy="4.0" in="blurOut2" result="blurOut3"/><feBlend in="SourceGraphic" in2="blurOut3" mode="normal"/></filter></defs><g><!--cluster SystemBoundery--><rect fill="#FFFFFF" filter="url(#f1bxo56fvzfr48)" height="681" style="stroke: #000000; stroke-width: 1.5;" width="452" x="139" y="24"/><text fill="#000000" font-family="sans-serif" font-size="14" font-weight="bold" lengthAdjust="spacingAndGlyphs" textLength="66" x="332" y="38.9951">RedCars</text><ellipse cx="227.6685" cy="84.0958" fill="#FEFECE" filter="url(#f1bxo56fvzfr48)" rx="56.6685" ry="24.5958" style="stroke: #A80036; stroke-width: 1.5;"/><text fill="#000000" font-family="sans-serif" font-size="14" lengthAdjust="spacingAndGlyphs" textLength="81" x="187.1685" y="82.7226">Registreren</text><text fill="#000000" font-family="sans-serif" font-size="14" lengthAdjust="spacingAndGlyphs" textLength="56" x="199.6685" y="99.0195">account</text><ellipse cx="502.9827" cy="85.2112" fill="#FEFECE" filter="url(#f1bxo56fvzfr48)" rx="71.9827" ry="25.7112" style="stroke: #A80036; stroke-width: 1.5;"/><text fill="#000000" font-family="sans-serif" font-size="14" lengthAdjust="spacingAndGlyphs" textLength="93" x="456.4827" y="81.2323">Opsturen van</text><text fill="#000000" font-family="sans-serif" font-size="14" lengthAdjust="spacingAndGlyphs" textLength="99" x="453.4827" y="97.5292">gebruikerspas</text><ellipse cx="227.4151" cy="167.2439" fill="#FEFECE" filter="url(#f1bxo56fvzfr48)" rx="53.9151" ry="23.7439" style="stroke: #A80036; stroke-width: 1.5;"/><text fill="#000000" font-family="sans-serif" font-size="14" lengthAdjust="spacingAndGlyphs" textLength="80" x="187.4151" y="167.2064">Reserveren</text><text fill="#000000" font-family="sans-serif" font-size="14" lengthAdjust="spacingAndGlyphs" textLength="31" x="211.9151" y="183.5033">auto</text><ellipse cx="503.1889" cy="169.9932" fill="#FEFECE" filter="url(#f1bxo56fvzfr48)" rx="61.6889" ry="24.4932" style="stroke: #A80036; stroke-width: 1.5;"/><text fill="#000000" font-family="sans-serif" font-size="14" lengthAdjust="spacingAndGlyphs" textLength="59" x="473.6889" y="164.2094">Afsluiten</text><text fill="#000000" font-family="sans-serif" font-size="14" lengthAdjust="spacingAndGlyphs" textLength="89" x="458.6889" y="180.5063">abonnement</text><ellipse cx="227.5752" cy="241.215" fill="#FEFECE" filter="url(#f1bxo56fvzfr48)" rx="64.0752" ry="15.215" style="stroke: #A80036; stroke-width: 1.5;"/><text fill="#000000" font-family="sans-serif" font-size="14" lengthAdjust="spacingAndGlyphs" textLength="91" x="182.0752" y="245.8635">Openen auto</text><ellipse cx="227.3007" cy="306.0601" fill="#FEFECE" filter="url(#f1bxo56fvzfr48)" rx="60.8007" ry="14.5601" style="stroke: #A80036; stroke-width: 1.5;"/><text fill="#000000" font-family="sans-serif" font-size="14" lengthAdjust="spacingAndGlyphs" textLength="82" x="186.3007" y="310.7086">Sluiten auto</text><ellipse cx="227.7471" cy="371.9494" fill="#FEFECE" filter="url(#f1bxo56fvzfr48)" rx="70.2471" ry="16.4494" style="stroke: #A80036; stroke-width: 1.5;"/><text fill="#000000" font-family="sans-serif" font-size="14" lengthAdjust="spacingAndGlyphs" textLength="107" x="174.2471" y="376.5979">Inchecken auto</text><ellipse cx="227.6576" cy="440.9315" fill="#FEFECE" filter="url(#f1bxo56fvzfr48)" rx="72.6576" ry="16.9315" style="stroke: #A80036; stroke-width: 1.5;"/><text fill="#000000" font-family="sans-serif" font-size="14" lengthAdjust="spacingAndGlyphs" textLength="113" x="171.1576" y="445.5799">Uitchecken auto</text><ellipse cx="227.3742" cy="507.7748" fill="#FEFECE" filter="url(#f1bxo56fvzfr48)" rx="61.8742" ry="14.7748" style="stroke: #A80036; stroke-width: 1.5;"/><text fill="#000000" font-family="sans-serif" font-size="14" lengthAdjust="spacingAndGlyphs" textLength="85" x="184.8742" y="512.4233">Starten auto</text><ellipse cx="503.1848" cy="482.9435" fill="#FEFECE" filter="url(#f1bxo56fvzfr48)" rx="51.6848" ry="24.4435" style="stroke: #A80036; stroke-width: 1.5;"/><text fill="#000000" font-family="sans-serif" font-size="14" lengthAdjust="spacingAndGlyphs" textLength="74" x="466.1848" y="481.8035">Afschrijven</text><text fill="#000000" font-family="sans-serif" font-size="14" lengthAdjust="spacingAndGlyphs" textLength="48" x="479.1848" y="498.1004">kosten</text><ellipse cx="503.0075" cy="399.1452" fill="#FEFECE" filter="url(#f1bxo56fvzfr48)" rx="51.0075" ry="24.1452" style="stroke: #A80036; stroke-width: 1.5;"/><text fill="#000000" font-family="sans-serif" font-size="14" lengthAdjust="spacingAndGlyphs" textLength="74" x="466.0075" y="398.4687">Afschrijven</text><text fill="#000000" font-family="sans-serif" font-size="14" lengthAdjust="spacingAndGlyphs" textLength="41" x="482.5075" y="414.7656">boete</text><ellipse cx="227.2779" cy="582.2417" fill="#FEFECE" filter="url(#f1bxo56fvzfr48)" rx="70.7779" ry="24.2417" style="stroke: #A80036; stroke-width: 1.5;"/><text fill="#000000" font-family="sans-serif" font-size="14" font-weight="bold" lengthAdjust="spacingAndGlyphs" textLength="61" x="196.7779" y="576.0691">«CRUD»</text><text fill="#000000" font-family="sans-serif" font-size="14" lengthAdjust="spacingAndGlyphs" textLength="104" x="175.2779" y="592.366">auto gegevens</text><ellipse cx="227.4722" cy="665.2081" fill="#FEFECE" filter="url(#f1bxo56fvzfr48)" rx="71.9722" ry="24.2081" style="stroke: #A80036; stroke-width: 1.5;"/><text fill="#000000" font-family="sans-serif" font-size="14" font-weight="bold" lengthAdjust="spacingAndGlyphs" textLength="61" x="196.9722" y="658.9832">«CRUD»</text><text fill="#000000" font-family="sans-serif" font-size="14" lengthAdjust="spacingAndGlyphs" textLength="106" x="174.4722" y="675.28">klant gegevens</text><ellipse cx="503.2096" cy="654.1459" fill="#FEFECE" filter="url(#f1bxo56fvzfr48)" rx="65.7096" ry="23.6459" style="stroke: #A80036; stroke-width: 1.5;"/><text fill="#000000" font-family="sans-serif" font-size="14" lengthAdjust="spacingAndGlyphs" textLength="99" x="453.7096" y="654.2674">Inactief stellen</text><text fill="#000000" font-family="sans-serif" font-size="14" lengthAdjust="spacingAndGlyphs" textLength="33" x="486.7096" y="670.5643">klant</text><!--entity klant--><ellipse cx="49" cy="52.5" fill="#FEFECE" filter="url(#f1bxo56fvzfr48)" rx="8" ry="8" style="stroke: #A80036; stroke-width: 2.0;"/><path d="M49,60.5 L49,87.5 M36,68.5 L62,68.5 M49,87.5 L36,102.5 M49,87.5 L62,102.5 " fill="none" filter="url(#f1bxo56fvzfr48)" style="stroke: #A80036; stroke-width: 2.0;"/><text fill="#000000" font-family="sans-serif" font-size="14" lengthAdjust="spacingAndGlyphs" textLength="68" x="15" y="122.4951">Gebruiker</text><!--entity member--><ellipse cx="49" cy="307.5" fill="#FEFECE" filter="url(#f1bxo56fvzfr48)" rx="8" ry="8" style="stroke: #A80036; stroke-width: 2.0;"/><path d="M49,315.5 L49,342.5 M36,323.5 L62,323.5 M49,342.5 L36,357.5 M49,342.5 L62,357.5 " fill="none" filter="url(#f1bxo56fvzfr48)" style="stroke: #A80036; stroke-width: 2.0;"/><text fill="#000000" font-family="sans-serif" font-size="14" lengthAdjust="spacingAndGlyphs" textLength="57" x="20.5" y="377.4951">Member</text><!--entity medewerker--><ellipse cx="49" cy="596.5" fill="#FEFECE" filter="url(#f1bxo56fvzfr48)" rx="8" ry="8" style="stroke: #A80036; stroke-width: 2.0;"/><path d="M49,604.5 L49,631.5 M36,612.5 L62,612.5 M49,631.5 L36,646.5 M49,631.5 L62,646.5 " fill="none" filter="url(#f1bxo56fvzfr48)" style="stroke: #A80036; stroke-width: 2.0;"/><text fill="#000000" font-family="sans-serif" font-size="14" lengthAdjust="spacingAndGlyphs" textLength="86" x="6" y="666.4951">Medewerker</text><!--link accountRegisteren to opsturenGebruikerspas--><path d="M284.18,84.2 C324.93,84.35 380.72,84.56 425.64,84.72 " fill="none" id="accountRegisteren-opsturenGebruikerspas" style="stroke: #A80036; stroke-width: 1.0; stroke-dasharray: 7.0,7.0;"/><polygon fill="#A80036" points="430.78,84.74,421.7915,80.7143,425.78,84.7257,421.7686,88.7143,430.78,84.74" style="stroke: #A80036; stroke-width: 1.0;"/><text fill="#000000" font-family="sans-serif" font-size="13" font-weight="bold" lengthAdjust="spacingAndGlyphs" textLength="69" x="331" y="81.0669">«include»</text><!--link autoReserveren to abonnementAfsluiten--><path d="M281.56,167.58 C325.77,168.07 388.95,168.76 436.35,169.28 " fill="none" id="autoReserveren-abonnementAfsluiten" style="stroke: #A80036; stroke-width: 1.0; stroke-dasharray: 7.0,7.0;"/><polygon fill="#A80036" points="441.47,169.34,432.5163,165.2374,436.4703,169.2829,432.4249,173.2369,441.47,169.34" style="stroke: #A80036; stroke-width: 1.0;"/><text fill="#000000" font-family="sans-serif" font-size="13" font-weight="bold" lengthAdjust="spacingAndGlyphs" textLength="69" x="331" y="165.0669">«include»</text><!--link autoUitchecken to afschrijvenKosten--><path d="M274.95,453.92 C292.13,458.31 311.85,462.88 330,466 C368.6,472.63 412.55,476.91 446.36,479.53 " fill="none" id="autoUitchecken-afschrijvenKosten" style="stroke: #A80036; stroke-width: 1.0; stroke-dasharray: 7.0,7.0;"/><polygon fill="#A80036" points="451.7,479.93,443.022,475.2724,446.7138,479.5585,442.4277,483.2503,451.7,479.93" style="stroke: #A80036; stroke-width: 1.0;"/><text fill="#000000" font-family="sans-serif" font-size="13" font-weight="bold" lengthAdjust="spacingAndGlyphs" textLength="69" x="331" y="462.0669">«include»</text><!--link autoUitchecken to afschrijvenBoete--><path d="M293.55,431.01 C342.99,423.42 409.85,413.15 454.38,406.31 " fill="none" id="autoUitchecken-afschrijvenBoete" style="stroke: #A80036; stroke-width: 1.0; stroke-dasharray: 7.0,7.0;"/><polygon fill="#A80036" points="288.52,431.78,298.0219,434.3712,293.4624,431.0229,296.8106,426.4634,288.52,431.78" style="stroke: #A80036; stroke-width: 1.0;"/><text fill="#000000" font-family="sans-serif" font-size="13" font-weight="bold" lengthAdjust="spacingAndGlyphs" textLength="67" x="332" y="412.0669">«extend»</text><!--link beherenKlantGegevens to klantInactief--><path d="M304.35,661.95 C346.23,660.27 397.68,658.2 437.59,656.59 " fill="none" id="beherenKlantGegevens-klantInactief" style="stroke: #A80036; stroke-width: 1.0; stroke-dasharray: 7.0,7.0;"/><polygon fill="#A80036" points="299.29,662.15,308.453,665.761,304.2854,661.9359,308.1105,657.7683,299.29,662.15" style="stroke: #A80036; stroke-width: 1.0;"/><text fill="#000000" font-family="sans-serif" font-size="13" font-weight="bold" lengthAdjust="spacingAndGlyphs" textLength="67" x="332" y="655.0669">«extend»</text><!--link klant to accountRegisteren--><path d="M83.2,84 C107.86,84 142.08,84 170.89,84 " fill="none" id="klant-accountRegisteren" style="stroke: #A80036; stroke-width: 1.0;"/><!--link medewerker to beherenAutoGegevens--><path d="M92.28,616.98 C115.83,610.84 145.46,603.12 170.88,596.5 " fill="none" id="medewerker-beherenAutoGegevens" style="stroke: #A80036; stroke-width: 1.0;"/><!--link medewerker to beherenKlantGegevens--><path d="M92.28,636.86 C114.41,641.5 141.89,647.26 166.21,652.36 " fill="none" id="medewerker-beherenKlantGegevens" style="stroke: #A80036; stroke-width: 1.0;"/><!--link member to autoReserveren--><path d="M67.5,297.43 C81.23,269.06 102.74,232.35 131,208 C145.63,195.4 164.71,186.17 181.97,179.69 " fill="none" id="member-autoReserveren" style="stroke: #A80036; stroke-width: 1.0;"/><!--link member to autoOpenen--><path d="M77.52,312.96 C92.44,299.89 111.74,284.63 131,274 C147.59,264.84 167.17,257.54 184.28,252.15 " fill="none" id="member-autoOpenen" style="stroke: #A80036; stroke-width: 1.0;"/><!--link member to autoSluiten--><path d="M77.58,333.84 C104.63,328.79 146.42,320.97 178.85,314.91 " fill="none" id="member-autoSluiten" style="stroke: #A80036; stroke-width: 1.0;"/><!--link member to autoInchecken--><path d="M77.58,344.16 C102.79,348.87 140.8,355.98 172.1,361.83 " fill="none" id="member-autoInchecken" style="stroke: #A80036; stroke-width: 1.0;"/><!--link member to autoUitchecken--><path d="M77.84,366.07 C92.71,379.44 111.85,395.01 131,406 C146.47,414.88 164.59,422.2 180.88,427.81 " fill="none" id="member-autoUitchecken" style="stroke: #A80036; stroke-width: 1.0;"/><!--link member to autoStarten--><path d="M65.6,380.6 C78.82,410.66 100.52,450.19 131,475 C144.74,486.18 162.5,493.68 178.98,498.66 " fill="none" id="member-autoStarten" style="stroke: #A80036; stroke-width: 1.0;"/><!--
@startuml

left to right direction

rectangle SystemBoundery as "RedCars"{
    usecase accountRegisteren       as "Registreren\naccount"
    usecase opsturenGebruikerspas   as "Opsturen van\ngebruikerspas"
    usecase autoReserveren          as "Reserveren\nauto"
    usecase abonnementAfsluiten     as "Afsluiten\nabonnement"

    accountRegisteren   .down.> opsturenGebruikerspas : **<<include>>**
    autoReserveren      .down.> abonnementAfsluiten : **<<include>>**

    usecase autoOpenen      as "Openen auto"
    usecase autoSluiten     as "Sluiten auto"
    usecase autoInchecken   as "Inchecken auto"
    usecase autoUitchecken  as "Uitchecken auto"
    usecase autoStarten     as "Starten auto"

    usecase afschrijvenKosten as "Afschrijven\nkosten"
    usecase afschrijvenBoete  as "Afschrijven\nboete"

    autoUitchecken ..> afschrijvenKosten    : **<<include>>**
    autoUitchecken <.. afschrijvenBoete     : **<<extend>>**

    usecase beherenAutoGegevens     as "**<<CRUD>>**\nauto gegevens"
    usecase beherenKlantGegevens    as "**<<CRUD>>**\nklant gegevens"
    usecase klantInactief           as "Inactief stellen\nklant"

    beherenKlantGegevens <.. klantInactief : **<<extend>>**
}

actor klant as "Gebruiker"
actor member as "Member"
actor medewerker as "Medewerker"

klant - - accountRegisteren

medewerker - - beherenAutoGegevens
medewerker - - beherenKlantGegevens

member - - autoReserveren
member - - autoOpenen
member - - autoSluiten
member - - autoInchecken
member - - autoUitchecken
member - - autoStarten

@enduml

PlantUML version 1.2018.13(Mon Nov 26 18:11:51 CET 2018)
(GPL source distribution)
Java Runtime: OpenJDK Runtime Environment
JVM: OpenJDK 64-Bit Server VM
Java Version: 11.0.10+9-Ubuntu-0ubuntu1.20.04
Operating System: Linux
OS Version: 5.8.0-48-generic
Default Encoding: UTF-8
Language: en
Country: US
--></g></svg>