<?xml version="1.0" encoding="UTF-8" standalone="no"?><svg xmlns="http://www.w3.org/2000/svg" xmlns:xlink="http://www.w3.org/1999/xlink" contentScriptType="application/ecmascript" contentStyleType="text/css" height="372px" preserveAspectRatio="none" style="width:277px;height:372px;" version="1.1" viewBox="0 0 277 372" width="277px" zoomAndPan="magnify"><defs><filter height="300%" id="fsajl5y5mudh8" width="300%" x="-1" y="-1"><feGaussianBlur result="blurOut" stdDeviation="2.0"/><feColorMatrix in="blurOut" result="blurOut2" type="matrix" values="0 0 0 0 0 0 0 0 0 0 0 0 0 0 0 0 0 0 .4 0"/><feOffset dx="4.0" dy="4.0" in="blurOut2" result="blurOut3"/><feBlend in="SourceGraphic" in2="blurOut3" mode="normal"/></filter></defs><g><!--cluster systemBoundery--><rect fill="#FFFFFF" filter="url(#fsajl5y5mudh8)" height="337" style="stroke: #000000; stroke-width: 1.5;" width="148" x="118" y="24"/><text fill="#000000" font-family="sans-serif" font-size="14" font-weight="bold" lengthAdjust="spacingAndGlyphs" textLength="110" x="137" y="38.9951">&lt;&lt;Gebruik&gt;&gt;</text><ellipse cx="191.9117" cy="74.0236" fill="#FEFECE" filter="url(#fsajl5y5mudh8)" rx="53.9117" ry="14.5236" style="stroke: #A80036; stroke-width: 1.5;"/><text fill="#000000" font-family="sans-serif" font-size="14" lengthAdjust="spacingAndGlyphs" textLength="72" x="155.9117" y="78.6721">Inchecken</text><ellipse cx="192.1543" cy="138.0236" fill="#FEFECE" filter="url(#fsajl5y5mudh8)" rx="58.1543" ry="14.5236" style="stroke: #A80036; stroke-width: 1.5;"/><text fill="#000000" font-family="sans-serif" font-size="14" lengthAdjust="spacingAndGlyphs" textLength="78" x="153.1543" y="142.6721">Uitchecken</text><ellipse cx="192.098" cy="202.0236" fill="#FEFECE" filter="url(#fsajl5y5mudh8)" rx="42.598" ry="14.5236" style="stroke: #A80036; stroke-width: 1.5;"/><text fill="#000000" font-family="sans-serif" font-size="14" lengthAdjust="spacingAndGlyphs" textLength="56" x="164.098" y="206.6721">Openen</text><ellipse cx="192.2193" cy="266.0236" fill="#FEFECE" filter="url(#fsajl5y5mudh8)" rx="44.7193" ry="14.5236" style="stroke: #A80036; stroke-width: 1.5;"/><text fill="#000000" font-family="sans-serif" font-size="14" lengthAdjust="spacingAndGlyphs" textLength="59" x="162.7193" y="270.6721">Afsluiten</text><ellipse cx="191.8553" cy="330.0236" fill="#FEFECE" filter="url(#fsajl5y5mudh8)" rx="38.3553" ry="14.5236" style="stroke: #A80036; stroke-width: 1.5;"/><text fill="#000000" font-family="sans-serif" font-size="14" lengthAdjust="spacingAndGlyphs" textLength="50" x="166.8553" y="334.6721">Starten</text><!--entity gebruiker--><ellipse cx="40" cy="170.5" fill="#FEFECE" filter="url(#fsajl5y5mudh8)" rx="8" ry="8" style="stroke: #A80036; stroke-width: 2.0;"/><path d="M40,178.5 L40,205.5 M27,186.5 L53,186.5 M40,205.5 L27,220.5 M40,205.5 L53,220.5 " fill="none" filter="url(#fsajl5y5mudh8)" style="stroke: #A80036; stroke-width: 2.0;"/><text fill="#000000" font-family="sans-serif" font-size="14" lengthAdjust="spacingAndGlyphs" textLength="68" x="6" y="240.4951">Gebruiker</text><!--link gebruiker to inchecken--><path d="M63.49,160.4 C75.29,141.72 91.22,120.63 110,106 C122.52,96.24 138.4,89.11 152.77,84.08 " fill="none" id="gebruiker-inchecken" style="stroke: #A80036; stroke-width: 1.0;"/><!--link gebruiker to uitchecken--><path d="M74.17,186.15 C85.47,180.87 98.23,175.05 110,170 C126.12,163.09 144.26,155.87 159.28,150.04 " fill="none" id="gebruiker-uitchecken" style="stroke: #A80036; stroke-width: 1.0;"/><!--link gebruiker to openen--><path d="M74.29,202 C96.47,202 125.79,202 149.49,202 " fill="none" id="gebruiker-openen" style="stroke: #A80036; stroke-width: 1.0;"/><!--link gebruiker to afsluiten--><path d="M74.17,217.85 C85.47,223.13 98.23,228.95 110,234 C127.23,241.39 146.77,249.13 162.35,255.15 " fill="none" id="gebruiker-afsluiten" style="stroke: #A80036; stroke-width: 1.0;"/><!--link gebruiker to starten--><path d="M63.49,243.6 C75.29,262.28 91.22,283.37 110,298 C124.43,309.24 143.32,317.01 159.22,322.07 " fill="none" id="gebruiker-starten" style="stroke: #A80036; stroke-width: 1.0;"/><!--
@startuml

left to right direction

rectangle systemBoundery as "**<<Gebruik>>**"{
    usecase inchecken   as "Inchecken"
    usecase uitchecken  as "Uitchecken"
    usecase openen      as "Openen"
    usecase afsluiten   as "Afsluiten"
    usecase starten     as "Starten"
}

actor gebruiker as "Gebruiker"

gebruiker - - inchecken
gebruiker - - uitchecken
gebruiker - - openen
gebruiker - - afsluiten
gebruiker - - starten


@enduml

PlantUML version 1.2018.13(Mon Nov 26 18:11:51 CET 2018)
(GPL source distribution)
Java Runtime: OpenJDK Runtime Environment
JVM: OpenJDK 64-Bit Server VM
Java Version: 11.0.10+9-Ubuntu-0ubuntu1.20.04
Operating System: Linux
OS Version: 5.8.0-48-generic
Default Encoding: UTF-8
Language: en
Country: US
--></g></svg>